<svg width="24" height="24" viewBox="0 0 24 24" fill="none" xmlns="http://www.w3.org/2000/svg">
<path fill-rule="evenodd" clip-rule="evenodd" d="M11.8622 6.10395C11.7151 6.19576 11.5302 6.34349 11.2145 6.59841L7.45786 9.63266C6.67157 10.2677 6.47701 10.4469 6.37206 10.6666C6.26712 10.8863 6.24995 11.1502 6.24995 12.161V15.6666C6.24995 16.3035 6.25067 16.731 6.28039 17.0589C6.30917 17.3764 6.36034 17.5261 6.41742 17.625C6.52713 17.815 6.68493 17.9728 6.87495 18.0825C6.97383 18.1396 7.12351 18.1907 7.44105 18.2195C7.76889 18.2492 8.19641 18.25 8.83329 18.25H8.99996C9.2432 18.25 9.38806 18.2496 9.49607 18.2422C9.56289 18.2376 9.59129 18.2315 9.59865 18.2297C9.65749 18.2044 9.70438 18.1575 9.72966 18.0986C9.73153 18.0913 9.73763 18.0629 9.74219 17.9961C9.74956 17.8881 9.74996 17.7432 9.74996 17.5L9.74996 17.4782C9.74995 17.2639 9.74994 17.0671 9.76122 16.9017C9.77334 16.7241 9.80095 16.5288 9.88317 16.3303C10.0608 15.9015 10.4015 15.5608 10.8303 15.3832C11.0288 15.3009 11.2241 15.2733 11.4018 15.2612C11.5671 15.2499 11.7639 15.2499 11.9782 15.25H12.0217C12.236 15.2499 12.4328 15.2499 12.5982 15.2612C12.7758 15.2733 12.9712 15.3009 13.1697 15.3832C13.5985 15.5608 13.9391 15.9015 14.1168 16.3303C14.199 16.5288 14.2266 16.7241 14.2387 16.9017C14.25 17.0671 14.25 17.2639 14.25 17.4782V17.5C14.25 17.7432 14.2504 17.8881 14.2577 17.9961C14.2623 18.0629 14.2684 18.0913 14.2703 18.0986C14.2955 18.1575 14.3424 18.2044 14.4013 18.2297C14.4086 18.2315 14.437 18.2376 14.5039 18.2422C14.6119 18.2496 14.7567 18.25 15 18.25H15.1666C15.8035 18.25 16.231 18.2492 16.5589 18.2195C16.8764 18.1907 17.0261 18.1396 17.125 18.0825C17.315 17.9728 17.4728 17.815 17.5825 17.625C17.6396 17.5261 17.6908 17.3764 17.7195 17.0589C17.7493 16.731 17.75 16.3035 17.75 15.6666L17.75 12.161C17.75 11.1502 17.7329 10.8863 17.6279 10.6666C17.523 10.4469 17.3284 10.2677 16.5421 9.63265L12.7854 6.59841C12.4698 6.34349 12.2848 6.19576 12.1378 6.10395C12.0711 6.06233 12.033 6.04585 12.0142 6.03932C12.0056 6.03632 12.0015 6.03558 12.0009 6.03547H11.9991C11.9984 6.03558 11.9944 6.03632 11.9857 6.03932C11.967 6.04585 11.9288 6.06233 11.8622 6.10395ZM11.0677 4.83163C11.3275 4.6694 11.6304 4.5354 12 4.5354C12.3695 4.5354 12.6725 4.6694 12.9323 4.83163C13.1662 4.97771 13.4227 5.18495 13.6979 5.40728C13.7079 5.41533 13.7179 5.4234 13.7279 5.4315L17.4846 8.46573C17.5212 8.4953 17.5574 8.52448 17.5932 8.55332C18.217 9.05599 18.7111 9.45421 18.9814 10.02C19.2517 10.5858 19.251 11.2204 19.2501 12.0215C19.2501 12.0674 19.25 12.1139 19.25 12.161L19.25 15.7006C19.25 16.2948 19.25 16.7907 19.2134 17.1943C19.1752 17.6159 19.0924 18.0098 18.8815 18.375C18.6402 18.793 18.293 19.1402 17.875 19.3815C17.5097 19.5924 17.1158 19.6752 16.6943 19.7134C16.2907 19.75 15.7948 19.75 15.2005 19.75H14.9782C14.7639 19.75 14.5671 19.75 14.4018 19.7387C14.2241 19.7266 14.0288 19.699 13.8303 19.6167C13.4015 19.4391 13.0608 19.0985 12.8832 18.6697C12.801 18.4712 12.7733 18.2758 12.7612 18.0982C12.7499 17.9328 12.7499 17.736 12.75 17.5217L12.75 17.5C12.75 17.2567 12.7496 17.1119 12.7422 17.0039C12.7376 16.937 12.7315 16.9086 12.7297 16.9013C12.7044 16.8424 12.6575 16.7955 12.5987 16.7703C12.5913 16.7684 12.5629 16.7623 12.4961 16.7577C12.3881 16.7504 12.2432 16.75 12 16.75C11.7567 16.75 11.6119 16.7504 11.5039 16.7577C11.437 16.7623 11.4086 16.7684 11.4013 16.7703C11.3424 16.7955 11.2955 16.8424 11.2703 16.9013C11.2684 16.9086 11.2623 16.937 11.2577 17.0039C11.2504 17.1119 11.25 17.2567 11.25 17.5L11.25 17.5217C11.25 17.736 11.25 17.9328 11.2387 18.0982C11.2266 18.2758 11.199 18.4712 11.1168 18.6697C10.9391 19.0985 10.5985 19.4391 10.1697 19.6167C9.97116 19.699 9.77582 19.7266 9.59817 19.7387C9.43285 19.75 9.236 19.75 9.02173 19.75H8.79938C8.20518 19.75 7.70926 19.75 7.30565 19.7134C6.88408 19.6752 6.49017 19.5924 6.12495 19.3815C5.7069 19.1402 5.35975 18.793 5.11839 18.375C4.90752 18.0097 4.82472 17.6158 4.78651 17.1943C4.74993 16.7907 4.74994 16.2947 4.74995 15.7005L4.74995 12.161C4.74995 12.1139 4.7499 12.0674 4.74985 12.0215C4.74898 11.2204 4.74829 10.5858 5.01859 10.02C5.28889 9.45421 5.78301 9.056 6.40676 8.55333C6.44253 8.5245 6.47874 8.49532 6.51535 8.46575L10.272 5.4315C10.2821 5.42341 10.2921 5.41534 10.302 5.40729C10.5772 5.18496 10.8337 4.97772 11.0677 4.83163Z" fill="black"/>
</svg>
